<svg xmlns="http://www.w3.org/2000/svg" width="480" height="360" viewBox="0 0 480 360">
<rect x="0" y="0" width="480" height="360" fill="#090f1c"/>
<g>
<g transform="translate(238.586342 188.266955)">
<circle cx="0" cy="0" r="144.26616" fill="#d1bf52" fill-opacity="0.149615" stroke="#ffef29" stroke-opacity="0.648717" stroke-width="2" stroke-linecap="butt" stroke-linejoin="round"/>
<g>
<g transform="rotate(100)">
<g transform="scale(2.254159 2.254159)">
<path d="M 0 0 C -19 -14 -13 -39 0 -46 C 13 -39 19 -14 0 0 Z" fill="#d1bf52" fill-opacity="0.149615" stroke="#ffef29" stroke-opacity="0.648717" stroke-width="2" stroke-linecap="butt" stroke-linejoin="round"/>
</g>
</g>
</g>
<circle cx="0" cy="0" r="120.386712" fill="#a1b34c" fill-opacity="0.132394" stroke="#cee837" stroke-opacity="0.591314" stroke-width="2" stroke-linecap="butt" stroke-linejoin="round"/>
<g>
<g transform="rotate(136)">
<g transform="scale(1.881042 1.881042)">
<path d="M 0 0 C -19 -14 -13 -39 0 -46 C 13 -39 19 -14 0 0 Z" fill="#a1b34c" fill-opacity="0.132394" stroke="#cee837" stroke-opacity="0.591314" stroke-width="2" stroke-linecap="butt" stroke-linejoin="round"/>
</g>
</g>
</g>
<circle cx="0" cy="0" r="74.255165" fill="#5b923e" fill-opacity="0.099126" stroke="#73c83f" stroke-opacity="0.480421" stroke-width="2" stroke-linecap="butt" stroke-linejoin="round"/>
<g>
<g transform="rotate(172)">
<g transform="scale(1.160237 1.160237)">
<path d="M 0 0 C -19 -14 -13 -39 0 -46 C 13 -39 19 -14 0 0 Z" fill="#5b923e" fill-opacity="0.099126" stroke="#73c83f" stroke-opacity="0.480421" stroke-width="2" stroke-linecap="butt" stroke-linejoin="round"/>
</g>
</g>
</g>
<circle cx="0" cy="0" r="32.894752" fill="#00743b" fill-opacity="0.069299" stroke="#00aa51" stroke-opacity="0.380997" stroke-width="2" stroke-linecap="butt" stroke-linejoin="round"/>
<g>
<g transform="rotate(208)">
<g transform="scale(0.51398 0.51398)">
<path d="M 0 0 C -19 -14 -13 -39 0 -46 C 13 -39 19 -14 0 0 Z" fill="#00743b" fill-opacity="0.069299" stroke="#00aa51" stroke-opacity="0.380997" stroke-width="2" stroke-linecap="butt" stroke-linejoin="round"/>
</g>
</g>
</g>
<circle cx="0" cy="0" r="20.53384" fill="#006b4d" fill-opacity="0.060385" stroke="#00a273" stroke-opacity="0.351283" stroke-width="2" stroke-linecap="butt" stroke-linejoin="round"/>
<g>
<g transform="rotate(244)">
<g transform="scale(0.320841 0.320841)">
<path d="M 0 0 C -19 -14 -13 -39 0 -46 C 13 -39 19 -14 0 0 Z" fill="#006b4d" fill-opacity="0.060385" stroke="#00a273" stroke-opacity="0.351283" stroke-width="2" stroke-linecap="butt" stroke-linejoin="round"/>
</g>
</g>
</g>
<circle cx="0" cy="0" r="44.413288" fill="#007f79" fill-opacity="0.077606" stroke="#00b6af" stroke-opacity="0.408686" stroke-width="2" stroke-linecap="butt" stroke-linejoin="round"/>
<g>
<g transform="rotate(280)">
<g transform="scale(0.693958 0.693958)">
<path d="M 0 0 C -19 -14 -13 -39 0 -46 C 13 -39 19 -14 0 0 Z" fill="#007f79" fill-opacity="0.077606" stroke="#00b6af" stroke-opacity="0.408686" stroke-width="2" stroke-linecap="butt" stroke-linejoin="round"/>
</g>
</g>
</g>
<circle cx="0" cy="0" r="90.544835" fill="#00a3b8" fill-opacity="0.110874" stroke="#00dcfc" stroke-opacity="0.519579" stroke-width="2" stroke-linecap="butt" stroke-linejoin="round"/>
<g>
<g transform="rotate(316)">
<g transform="scale(1.414763 1.414763)">
<path d="M 0 0 C -19 -14 -13 -39 0 -46 C 13 -39 19 -14 0 0 Z" fill="#00a3b8" fill-opacity="0.110874" stroke="#00dcfc" stroke-opacity="0.519579" stroke-width="2" stroke-linecap="butt" stroke-linejoin="round"/>
</g>
</g>
</g>
<circle cx="0" cy="0" r="131.905248" fill="#3cc3f1" fill-opacity="0.140701" stroke="#00faff" stroke-opacity="0.619003" stroke-width="2" stroke-linecap="butt" stroke-linejoin="round"/>
<g>
<g transform="rotate(352)">
<g transform="scale(2.06102 2.06102)">
<path d="M 0 0 C -19 -14 -13 -39 0 -46 C 13 -39 19 -14 0 0 Z" fill="#3cc3f1" fill-opacity="0.140701" stroke="#00faff" stroke-opacity="0.619003" stroke-width="2" stroke-linecap="butt" stroke-linejoin="round"/>
</g>
</g>
</g>
<circle cx="0" cy="0" r="144.26616" fill="#6ec6ff" fill-opacity="0.149615" stroke="#68faff" stroke-opacity="0.648717" stroke-width="2" stroke-linecap="butt" stroke-linejoin="round"/>
<g>
<g transform="rotate(28)">
<g transform="scale(2.254159 2.254159)">
<path d="M 0 0 C -19 -14 -13 -39 0 -46 C 13 -39 19 -14 0 0 Z" fill="#6ec6ff" fill-opacity="0.149615" stroke="#68faff" stroke-opacity="0.648717" stroke-width="2" stroke-linecap="butt" stroke-linejoin="round"/>
</g>
</g>
</g>
<circle cx="0" cy="0" r="120.386712" fill="#7ba7fa" fill-opacity="0.132394" stroke="#91d5ff" stroke-opacity="0.591314" stroke-width="2" stroke-linecap="butt" stroke-linejoin="round"/>
<g>
<g transform="rotate(64)">
<g transform="scale(1.881042 1.881042)">
<path d="M 0 0 C -19 -14 -13 -39 0 -46 C 13 -39 19 -14 0 0 Z" fill="#7ba7fa" fill-opacity="0.132394" stroke="#91d5ff" stroke-opacity="0.591314" stroke-width="2" stroke-linecap="butt" stroke-linejoin="round"/>
</g>
</g>
</g>
<path d="M -121.583739 -44.252862 A 129.386712 129.386712 0 0 1 99.115972 -83.168176" fill="#7ba7fa" fill-opacity="0.132394" stroke="#fff79f" stroke-opacity="0.75" stroke-width="3" stroke-linecap="butt" stroke-linejoin="round"/>
</g>
</g>
</svg>
